<?xml version="1.0" encoding="UTF-8"?>
<svg id="Layer_2" xmlns="http://www.w3.org/2000/svg" version="1.1" viewBox="0 0 250 35.4">
  <!-- Generator: Adobe Illustrator 30.2.1, SVG Export Plug-In . SVG Version: 2.1.1 Build 1)  -->
  <defs>
    <style>
      .st0 {
        fill: #faf7f0;
      }
    </style>
  </defs>
  <g id="Layer_1-2">
    <g>
      <path class="st0" d="M.4,0v.9c.8,0,1.5.2,2.1.3.5.2.9.4,1.2.7.3.3.5.8.6,1.3.1.6.1,2.1.1,4.3v23.1c0-.3,0,1.2-.2,1.8-.1.6-.3,1-.6,1.4-.4.3-.8.5-1.4.7-.6.2-1.3.2-2.2.3v.8h14.1v-.8c-.5,0-1.2,0-2.1-.2-.8-.2-1.5-.4-2-.8-.5-.4-.9-.9-1.1-1.4s-.4-2.2-.4-3.1v-13c1.5,0,3,.2,4,.5s2.8,1.2,3.5,3.3c.2.6.3.7.3,1.6h.8v-10.9h-.8c0,.6-.2,1.3-.4,2.4-.2,1-.9,2.6-2.5,2.3-.5,0-3-.4-4.9-.5V1.6c0-.5.3-.7.7-.7h5.6c1.3,0,2.5.1,3.4.3s1.8.5,2.4.8c.6.4,1.1,1,1.5,1.6.4.7.7,1.6.8,2.6h.8L23.3,0H.4Z"/>
      <path class="st0" d="M57.2,31.8c-2.4,2.8-4.7,2.8-7.6,2.8s-5.5-.9-6.2-1.5c-1-1-1.1-2.1-1.2-4.1,0-2,0-23.3,0-23.3,0-1,0-1.8.2-2.4.1-.6.3-1.1.6-1.5.3-.4.7-.6,1.2-.7.5-.2,1.2-.2,2.1-.3V0h-12.2v.8c.9,0,1.6.2,2.1.3.6.2,1,.4,1.2.7.3.3.5.8.6,1.4.1.6.2,1.3.2,2.2v24.7c0,1,0,1.7-.2,2.3-.1.6-.4,1.1-.7,1.4-.3.4-.8.6-1.4.7-.6.1-1.3.2-2.2.2v.8h25.3l.6-7.1h-.8c-.3,1.4-1,2.9-1.6,3.5h0Z"/>
      <path class="st0" d="M86.5.8c.8,0,1.5,0,2.1.2s1.4.3,1.9.7c.6.6.8,1.3,1,2.5.2,1.2.3,3,.3,5.3v14.2c0,2.9-.7,5.5-2,7-1.3,1.5-3.8,2.7-6.4,2.7s-4.3-.5-6-2.3c-.7-.7-1.3-2-1.6-3.1-.3-1-.4-2.2-.4-3.5v-16c0-2,0-3.4.2-4.5.2-1.1.4-1.8.8-2.3.3-.4.8-.7,1.3-.8.6-.1,1.3-.2,2.2-.2V0h-13.1v.8c.9,0,1.6,0,2.1.2.6.1,1,.3,1.3.7.5.5.7,1.3.8,2.3,0,1.1.1,2.6.1,4.5v15.6c0,2.1.2,3.8.7,5.2.5,1.4,1.2,2.6,2.2,3.5,1,.9,2.2,1.5,3.6,1.9,1.4.4,2.7.6,4.7.6s3.3-.3,4.7-.8c1.5-.5,2.6-1.3,3.5-2.4s1.6-2.4,2-3.9c.4-1.6.7-3.4.7-5.5v-13.2c0-2.2,0-3.8.2-5,.2-1.2.4-2,.8-2.6.4-.6,1.2-.8,1.8-.9.6-.2,1.2-.2,2.1-.2V0h-11.5v.8h0Z"/>
      <path class="st0" d="M133.6.8c1.2,0,2.1.3,2.6.6.5.3.7.8.7,1.5s-.1.9-.3,1.5-.4,1.3-.8,2.3l-8.5,21.8s-.6.1-.9-.7l-8.4-21.9c-.4-.9-.6-1.6-.7-2.1-.2-.5-.2-.9-.2-1.3s0-.5.2-.7c.1-.2.3-.4.6-.6.3-.1.6-.3,1.1-.3.5,0,1.1-.1,1.8-.1V0h-12.6v.8c.7,0,1.3.2,1.8.4.5.2,1,.5,1.4.9.4.4.8.9,1.1,1.4.4.6.7,1.3,1,2.1l11.5,29.9h1.4l12.2-31.3c.3-.5.5-1,.8-1.4.3-.4.6-.7.9-1,.4-.2,1-.5,1.4-.7.5-.1,1.1-.2,1.7-.2V0h-9.4v.8h0Z"/>
      <path class="st0" d="M160.4,33.5c-.3-.4-.5-1-.6-1.8-.1-.8-.2-1.8-.2-3.1V6.8c0-1.2,0-2.2.2-2.9.1-.8.3-1.4.6-1.8.3-.5.7-.8,1.2-.9.6-.2,1.2-.3,2.1-.4V0h-12.1v.8c.9,0,1.6.2,2.1.4.6.2,1,.5,1.2.9.3.4.5,1,.6,1.7.1.7.2,1.7.2,2.8v22.3c0,1.3,0,2.2-.2,3-.1.7-.3,1.3-.7,1.7-.3.4-.8.7-1.3.9-.6.2-1.3.2-2.3.3v.8h12.9v-.8c-.9,0-1.7-.1-2.3-.3-.6-.2-1-.4-1.3-.9h0Z"/>
      <path class="st0" d="M206,33.2c-.4-.5-.9-1.5-1.2-2.4-.5-.9-12.6-30.8-12.6-30.8h-1l-12.2,30.6c-.2.6-.5,1.1-.7,1.5-.5.9-1.3,1.9-2.8,2.3-.4.1-.7.2-1.6.2v.9c0,0,9.6,0,9.6,0v-.8c-1.1,0-2.4-.2-2.9-.6s-.7-.9-.4-2.3c.1-.4.5-1.8.7-2.4.2-.6,3.6-9.5,4.1-10.6,0,0,3,0,5.7.9,1.9.6,3.1,1.3,4,1.9,1.6,1.2,2.3,2.6,2.6,3.3.2.3,2.3,5.7,2.4,6,0,.3.1.5.1.7,0,.2,0,.5,0,.7,0,.6-.3,1.5-.9,1.9-.5.4-1.5.6-2.8.6v.8h12.9v-.8c-.7,0-1.4,0-1.8-.3-.5-.2-.9-.6-1.4-1.2h0ZM185.7,17.5c.5-1.2,4.6-11.7,4.6-11.7l5.1,13.4c-2.5-1-5.6-1.5-9.8-1.7h0Z"/>
      <path class="st0" d="M240.4,0v.8c.9,0,1.5.1,2,.3.5.1.9.4,1.2.8.3.5.5,1,.6,1.8,0,.8.1,1.8.1,3.1v18.9c0,0-1.7,0-3.2-2.1L226.4,0h-6.6v.8c.9,0,1.5.2,2.1.4.5.2.9.5,1.2.9.3.5.5,1,.6,1.7.1.8.2,1.6.2,2.7v22.5c0,1.3-.1,2.2-.2,2.9-.1.8-.3,1.3-.7,1.7-.3.4-.8.7-1.3.8-.6.1-1.3.2-2.2.3v.8h9.6v-.8c-.9,0-1.5-.1-2-.3-.6-.1-.9-.4-1.2-.8-.3-.5-.5-1-.6-1.8-.1-.8-.1-1.8-.1-3.1V6.1h.2l18.2,29.3h2.2V6.5c0-1.2.1-2.2.2-2.9.1-.8.3-1.3.6-1.7.4-.4.8-.7,1.4-.8.6-.2,1.3-.2,2.2-.3V0h-9.6,0Z"/>
    </g>
  </g>
</svg>