<?xml version="1.0" encoding="UTF-8"?>
<svg id="Layer_2" data-name="Layer 2" xmlns="http://www.w3.org/2000/svg" viewBox="0 0 748.33 350.12">
  <defs>
    <style>
      .cls-1 {
        fill: #faf7f0;
      }
    </style>
  </defs>
  <g id="Layer_1-2" data-name="Layer 1">
    <g>
      <path class="cls-1" d="M1.21,244.38v2.57c2.42.15,4.53.45,6.19.76,1.51.45,2.72,1.06,3.63,2.11.75.91,1.36,2.27,1.66,3.93.3,1.81.3,6.19.3,12.84v69.19c0-.91-.15,3.47-.45,5.29-.3,1.66-.91,3.02-1.81,4.08-1.06.91-2.27,1.51-4.08,1.96-1.66.45-3.93.6-6.65.76v2.27h42.15v-2.42c-1.51,0-3.62-.15-6.19-.45-2.42-.45-4.53-1.21-6.04-2.27-1.51-1.21-2.72-2.57-3.32-4.23-.6-1.66-1.06-6.65-1.06-9.37v-38.82c4.53,0,9.06.6,11.93,1.51s8.31,3.63,10.42,9.82c.6,1.81.76,1.96.91,4.68h2.42v-32.48h-2.42c-.15,1.81-.45,3.93-1.06,7.25-.6,2.87-2.72,7.7-7.55,6.95-1.51-.15-9.06-1.06-14.65-1.51l.15-39.73c0-1.36.6-2.11,1.96-2.11h16.77c3.93,0,7.4.3,10.27.76s5.29,1.36,7.1,2.42c1.81,1.21,3.32,2.87,4.38,4.83,1.06,2.11,1.96,4.68,2.42,7.85h2.27l-1.06-18.43H1.21Z"/>
      <path class="cls-1" d="M171.3,339.4c-7.25,8.46-14.2,8.31-22.66,8.31s-16.47-2.57-18.58-4.53c-2.87-2.87-3.32-6.34-3.47-12.39-.15-6.04,0-69.64,0-69.64,0-3.02.15-5.44.45-7.25.3-1.81.91-3.32,1.66-4.38.91-1.06,2.12-1.66,3.62-2.11,1.51-.45,3.63-.6,6.19-.76v-2.27h-36.41v2.27c2.57.15,4.68.45,6.19.76,1.66.45,2.87,1.06,3.63,2.11.91.91,1.51,2.27,1.66,4.08.3,1.66.45,3.93.45,6.65v73.87c0,2.87-.15,5.14-.45,6.8-.3,1.81-1.06,3.17-1.96,4.08-.91,1.06-2.27,1.66-4.08,2.11-1.66.3-3.93.6-6.65.6v2.42h75.68l1.81-21.3h-2.27c-.76,4.08-3.02,8.61-4.83,10.57Z"/>
      <path class="cls-1" d="M258.91,246.65c2.42,0,4.53.15,6.19.45,1.66.3,4.23.76,5.74,2.12,1.66,1.81,2.42,3.93,2.87,7.55.6,3.63.91,9.06.91,16.01l-.15,42.6c0,8.61-1.96,16.47-5.89,20.85-3.93,4.38-11.33,8.01-19.19,8.01-4.53,0-12.99-1.36-17.98-6.8-1.96-1.96-3.93-6.04-4.68-9.21-.91-3.02-1.21-6.65-1.21-10.57v-47.89c0-5.89.15-10.27.45-13.44.45-3.17,1.06-5.44,2.27-6.8.91-1.21,2.27-2.11,3.78-2.42,1.66-.3,3.93-.45,6.65-.45v-2.27h-39.13v2.27c2.57,0,4.83.15,6.34.6,1.66.3,2.87.91,3.93,1.96,1.36,1.51,2.12,3.93,2.42,6.95.15,3.17.3,7.7.3,13.6v46.83c0,6.19.6,11.48,2.11,15.71,1.36,4.23,3.47,7.7,6.5,10.42,2.87,2.57,6.5,4.53,10.88,5.59,4.23,1.21,8.16,1.81,14.05,1.81s9.82-.76,14.2-2.42c4.38-1.51,7.86-3.93,10.57-7.1s4.68-7.1,5.89-11.78c1.21-4.83,1.96-10.27,1.96-16.47v-39.58c0-6.5.15-11.48.6-15.11.45-3.47,1.06-6.04,2.42-7.7,1.21-1.66,3.63-2.42,5.29-2.72,1.66-.45,3.62-.6,6.19-.6v-2.27h-34.29v2.27Z"/>
      <path class="cls-1" d="M399.84,246.65c3.63,0,6.34.91,7.7,1.81,1.36.91,1.96,2.42,1.96,4.53,0,1.21-.3,2.72-.75,4.38s-1.21,3.93-2.42,6.95l-25.53,65.26s-1.66.3-2.57-2.11l-25.23-65.56c-1.06-2.72-1.81-4.83-2.11-6.34-.45-1.36-.6-2.72-.6-3.78,0-.76.15-1.51.45-2.11.3-.6.91-1.21,1.66-1.66.76-.3,1.81-.75,3.17-.91,1.51-.15,3.17-.3,5.44-.3v-2.42h-37.62v2.27c1.96.15,3.78.6,5.29,1.06,1.51.6,2.87,1.36,4.08,2.57,1.06,1.06,2.27,2.57,3.17,4.23,1.06,1.81,1.96,3.78,3.02,6.19l34.29,89.43h4.23l36.41-93.81c.76-1.51,1.51-3.02,2.27-4.08.75-1.21,1.66-2.11,2.57-2.87,1.06-.6,3.02-1.51,4.23-1.96,1.36-.3,3.17-.6,5.14-.6v-2.42h-28.25v2.27Z"/>
      <path class="cls-1" d="M480.05,344.54c-.91-1.21-1.51-3.02-1.81-5.29-.3-2.27-.45-5.44-.45-9.37v-65.26c0-3.47.15-6.5.45-8.76.3-2.27.76-4.08,1.66-5.44.75-1.36,1.96-2.27,3.47-2.72,1.66-.6,3.62-.91,6.19-1.06v-2.27h-36.25v2.27c2.57.15,4.68.45,6.19,1.06,1.66.45,2.87,1.36,3.63,2.72.91,1.21,1.51,3.02,1.66,5.14.3,2.11.45,4.99.45,8.31v66.77c0,3.78-.15,6.65-.45,8.91-.3,2.11-.91,3.93-1.96,4.98-.91,1.21-2.27,2.11-3.93,2.57-1.66.45-3.93.6-6.8.76v2.27h38.67v-2.27c-2.72-.15-4.99-.3-6.8-.76-1.66-.45-3.02-1.21-3.93-2.57Z"/>
      <path class="cls-1" d="M616.61,343.48c-1.06-1.51-2.57-4.53-3.62-7.1-1.36-2.72-37.61-92.15-37.61-92.15h-2.87l-36.56,91.69c-.6,1.66-1.36,3.17-1.96,4.38-1.36,2.72-3.78,5.74-8.31,6.8-1.21.3-2.12.45-4.68.45l-.15,2.57h28.85v-2.42c-3.32,0-7.25-.45-8.61-1.81-1.06-1.06-1.96-2.57-1.21-6.8.3-1.21,1.51-5.29,2.12-7.1.6-1.81,10.88-28.55,12.24-31.87,0,0,8.91.15,16.92,2.57,5.74,1.81,9.21,3.78,12.08,5.74,4.83,3.63,6.8,7.86,7.7,9.97.45.91,6.95,17.07,7.25,17.83.15.75.3,1.36.3,1.96.15.6.15,1.36.15,2.12,0,1.81-.76,4.53-2.57,5.74-1.36,1.06-4.38,1.66-8.46,1.66v2.42h38.52v-2.27c-1.96,0-4.08-.15-5.44-.76-1.51-.6-2.72-1.66-4.08-3.62ZM555.73,296.5c1.36-3.63,13.9-35.05,13.9-35.05l15.41,40.18c-7.4-3.02-16.62-4.53-29.31-5.14Z"/>
      <path class="cls-1" d="M719.48,244.38v2.27c2.57,0,4.53.3,6.04.76,1.51.3,2.72,1.21,3.62,2.42.76,1.36,1.36,3.02,1.66,5.44.15,2.27.3,5.44.3,9.21l-.15,56.5s-4.98,0-9.52-6.34l-43.81-70.24h-19.79v2.27c2.57.15,4.53.45,6.19,1.06,1.51.45,2.72,1.36,3.47,2.57.91,1.36,1.36,3.02,1.66,5.14.3,2.27.45,4.68.45,8.01l-.15,67.37c0,3.78-.15,6.65-.45,8.76-.3,2.27-.91,3.93-1.96,5.14-.91,1.06-2.27,1.96-3.93,2.42-1.66.3-3.93.6-6.65.76v2.27h28.85v-2.27c-2.57-.15-4.53-.3-6.04-.76-1.66-.3-2.72-1.21-3.62-2.42-.76-1.36-1.36-3.02-1.66-5.44-.3-2.27-.3-5.29-.3-9.21v-67.68h.45l54.38,87.77h6.65l.15-86.41c0-3.63.15-6.65.45-8.76.3-2.27.91-3.93,1.81-5.14,1.06-1.21,2.42-1.96,4.08-2.42,1.66-.45,3.93-.6,6.65-.76v-2.27h-28.85Z"/>
      <path class="cls-1" d="M370.51,138.5c.6-16.11-9.3-30.82-18.46-45-6.29-9.57-13.2-18.92-19.99-28.31,5.16-5.49,10.97-10.71,17.95-15,13.02-7.72,31.47-12.79,51.76-4,13.84,5.99,15.86,18.87,16.68,24.09,3.68-25.94-21.65-36.09-43.11-32.36-18.84,2.96-33.5,13.77-44.81,24.82l-.2.2-.16-.22c-16.96-18.48-25.08-38.81,5.1-51.38.21-.09.41-.19.61-.28,1.93-.88,4.6-1.21,6.99-1.78.55-.08,1.11-.12,1.66-.18,2.69-.42,5.63-.53,8.75-.42,18.93.26,37.86,7.15,56.77,3.31,6.96-1.38,12.96-4.75,17.13-9.11-6.93,1.05-14.03,1.58-21.11,1.24-14.69-.48-28.9-2.39-43.64-3.85-25.22-2.5-48.96,12.15-50.55,37.67-.72,11.52,5.29,22.37,11.8,32.17.13.19.09.17-.04.31-15.28,17.57-23.65,37.69-25.91,58.86-2.71,21.01,5.69,39.13,20.75,46.04,28.67,13.15,53.17-14.37,52.05-36.84ZM301.1,148.54c-5.76-25.51,6.57-54.04,23.73-75.15l.45-.53.34.57,20.14,33.96c6.42,11.29,13.06,23.21,12.35,35.71-3.96,46.44-49.16,40.15-57.01,5.45Z"/>
      <path class="cls-1" d="M432.43,84.5c.79-9,2.38-18.13-9.38-23.18l-.88,1.54c10.55,4.67,8.43,13.38,7.65,21.46-.89,8.31-2,16.63-2.57,25.02-1.39,15.69,1.54,32.83,13.97,45.59-3.99-.08-8.03-.97-11.25-2.81l-1.42.93-10.5,6.85c-4.34-2.8-10.63-6.87-10.63-6.87l-1.49-.96c-2.28,1.35-4.92,2.22-7.81,2.57-1.07.14-2.2.21-3.34.24,19.14-19.84,13.18-47.12,10.14-70.58-.93-8.1-3.19-16.79,7.27-21.44l-.92-1.56c-4.93,2.09-8.56,5.94-9.42,10.42-.72,3.79.23,9.01.45,12.76,2.8,24.8,6.55,55.07-18.03,73.94,4.06.54,10.51.15,14.53-.46,2.17-.27,4.33-.79,6.36-1.59,3.33,4.4,10.63,14.01,13,17.14,2.36-3.18,9.43-12.72,12.69-17.12,2.05.8,4.22,1.33,6.39,1.6,4.04.61,9.82-.42,13.86-1.01-24.88-18.9-21.03-47.71-18.69-72.47Z"/>
    </g>
  </g>
</svg>